<svg width="33" height="41" viewBox="0 0 33 41" fill="none" xmlns="http://www.w3.org/2000/svg">
<path d="M0 20.7134V40.6931H9.34748V0.733643H0V20.7134Z" fill="#072F57"/>
<path d="M2.33721 40.8241C3.68325 40.8614 5.81447 40.8614 7.10443 40.8241C8.39438 40.8054 7.29138 40.7681 4.67408 40.7681C2.05679 40.7681 0.991172 40.8054 2.33721 40.8241Z" fill="#072F57"/>
<path d="M11.5909 20.7134V40.6931H20.7514V0.733643H11.5909V20.7134Z" fill="#456381"/>
<path d="M20.7514 20.7134V40.6931L11.4974 40.7864L20.9384 40.8798C20.9384 9.7712 20.901 0.733643 20.8449 0.733643C20.7888 0.733643 20.7514 9.71518 20.7514 20.7134Z" fill="#456381"/>
<path d="M23.182 20.7134V40.6931H32.3426V0.733643H23.182V20.7134Z" fill="#8FB7E1"/>
<path d="M32.3425 20.7134V40.6931L23.0884 40.7864L32.5294 40.8798C32.5294 9.7712 32.492 0.733643 32.4359 0.733643C32.3798 0.733643 32.3425 9.71518 32.3425 20.7134Z" fill="#8FB7E1"/>
</svg>
