<svg width="18" height="18" viewBox="0 0 18 18" fill="none" xmlns="http://www.w3.org/2000/svg">
<g id="SVG" clip-path="url(#clip0_1_73)">
<path id="Vector" fill-rule="evenodd" clip-rule="evenodd" d="M16.1674 5.8629C16.1674 5.70004 16.1589 5.54662 16.152 5.38547C16.8771 4.87983 17.5034 4.24565 18 3.51433C17.324 3.80116 16.609 3.98547 15.8786 4.06119C16.6476 3.61943 17.2259 2.90861 17.502 2.06576C16.7751 2.48018 15.9825 2.76663 15.1586 2.91262C14.8134 2.5419 14.397 2.24469 13.9342 2.03878C13.4714 1.83288 12.9719 1.72252 12.4654 1.71433C11.9827 1.70567 11.503 1.79338 11.0546 1.97234C10.6061 2.1513 10.1978 2.41792 9.85367 2.75658C9.5095 3.09524 9.23634 3.49914 9.05017 3.94465C8.86399 4.39017 8.76855 4.86834 8.76943 5.35119C8.76943 5.63833 8.79943 5.91776 8.86629 6.19033C5.79429 6.00176 3.072 4.49576 1.25314 2.22004C0.922684 2.78538 0.749 3.42864 0.75 4.08347C0.75 5.37776 1.404 6.52719 2.39657 7.20004C1.80707 7.17472 1.2322 7.00867 0.72 6.71576V6.76633C0.720024 7.62542 1.01475 8.4585 1.55497 9.12648C2.09519 9.79446 2.8482 10.2569 3.68829 10.4366C3.37122 10.521 3.04439 10.5631 2.71629 10.5618C2.48182 10.5578 2.24824 10.5319 2.01857 10.4846C2.24985 11.224 2.70704 11.8724 3.32586 12.3386C3.94468 12.8047 4.69403 13.0652 5.46857 13.0835C4.70231 13.6849 3.82467 14.1289 2.88615 14.3899C1.94762 14.6509 0.966758 14.7236 0 14.604C1.68343 15.704 3.65138 16.2884 5.66229 16.2858C12.4509 16.2858 16.1674 10.7023 16.1674 5.8629Z" fill="white"/>
</g>
<defs>
<clipPath id="clip0_1_73">
<rect width="18" height="18" fill="white"/>
</clipPath>
</defs>
</svg>
